<svg width="34" height="34" xmlns="http://www.w3.org/2000/svg">
  <g transform="translate(1 1)" fill="none" fill-rule="evenodd">
    <circle stroke="#000" cx="16" cy="16" r="16"/>
    <path d="M21.897 14.87v6.624c0 .32-.262.593-.57.593H11.239c-.306 0-.57-.273-.57-.591v-6.672h1.364c-.355 1.266-.259 2.486.347 3.648a4.455 4.455 0 0 0 1.73 1.818 4.303 4.303 0 0 0 4.673-.21c.533-.379.969-.854 1.305-1.428a4.702 4.702 0 0 0 .618-1.862 4.857 4.857 0 0 0-.177-1.966h1.368v.047zm-5.613-1.66c1.626-.002 2.938 1.398 2.902 3.093-.034 1.643-1.346 2.994-2.968 2.958-1.56-.035-2.86-1.377-2.838-3.07.022-1.65 1.315-2.983 2.904-2.982zm3.678-3.23h1.354c.324 0 .581.27.581.608v1.415c0 .317-.247.587-.55.595-.236.007-.473.001-.709.004h-.653a.579.579 0 0 1-.567-.402.71.71 0 0 1-.035-.208c-.002-.468-.001-.936-.001-1.403 0-.339.257-.608.58-.609zm2.15-1.198c-.027-.003-.053-.01-.08-.014H10.536c-.07.013-.14.023-.208.039-.635.15-1.105.683-1.195 1.354l-.014.083v11.984c.013.076.024.153.04.229.14.647.67 1.148 1.3 1.232.031.004.062.01.092.016h11.466c.075-.014.149-.025.222-.041.586-.13 1.063-.638 1.178-1.252.012-.066.022-.134.032-.2V10.26c-.01-.065-.018-.131-.031-.196-.125-.67-.655-1.19-1.306-1.282z" fill="#000"/>
  </g>
</svg>
