<svg width="121" height="68" xmlns="http://www.w3.org/2000/svg" xmlns:xlink="http://www.w3.org/1999/xlink">
  <defs>
    <path id="a" d="M.043 18.515h15.471V.175H.043v18.34z"/>
  </defs>
  <g fill="none" fill-rule="evenodd">
    <path fill="#373737" d="M11.583 49.537v1.376h9.308v17.04h1.378v-17.04h9.31v-1.376zM74.464 67.952h1.377V49.537h-1.377zM58.177 49.537v18.415h1.377v-16.48l11.233 16.48h1.654L59.89 49.537zM97.932 48.756c-7.521 0-13.74 6.21-13.74 13.723 0 1.94.418 3.792 1.162 5.473h1.49a12.287 12.287 0 0 1-1.274-5.473c0-6.843 5.51-12.31 12.362-12.31 4.133 0 7.894 2.046 10.203 5.467h.149l1.042-.78a13.716 13.716 0 0 0-11.394-6.1"/>
    <g transform="translate(33.705 49.437)">
      <mask id="b" fill="#fff">
        <use xlink:href="#a"/>
      </mask>
      <path d="M13.606 17.282H1.95L7.76 1.736l1.906 5.07-1.754 1.886.947.888 1.317-1.417 3.43 9.119zM13.08 5.039l-.947-.888-1.477 1.588L8.542.174H7.015L.043 18.514h15.471L11.172 7.093 13.08 5.04z" fill="#373737" mask="url(#b)"/>
    </g>
    <path d="M104.461 19.604l-.018.002c-.031 0-.064-.006-.097-.01.039.005.077.01.115.008m.274-2.297c.032 0 .063.008.095.013a.582.582 0 0 0-.109-.011l.014-.002m-.804 2.698c.165.07.34.106.512.106.558 0 1.032-.362 1.41-1.074a.509.509 0 0 0 .026-.059c.162-.43.186-.839.072-1.213-.154-.494-.452-.721-.688-.826a1.079 1.079 0 0 0-.528-.137c-.21 0-.425.06-.642.176-.373.2-.646.524-.813.96a1.741 1.741 0 0 0-.077 1.186c.156.552.482.784.728.881" fill="#F11F96"/>
    <path d="M75.621 29.968c-.337-.337-.674-1.01-.337-2.02.214-.639.674-1.01 1.012-.674.337.337.337 1.01 0 1.684-.143.285-.338.673-.675 1.01zm-2.431 3.639c-.7.59-1.375.968-2.001 1.122-.51.125-.884.07-1.187-.186-.097-.082-.397-.456-.197-1.85.08-.541.255-1.123.517-1.729a8.728 8.728 0 0 1 1.095-1.826 12.416 12.416 0 0 1 1.703-1.786c.216-.187.442-.369.678-.545l-.02.034a5.183 5.183 0 0 0-.644 1.975c-.096.778.017 1.473.33 2.058a4.815 4.815 0 0 0 .483.665c.153.184.334.353.538.505a5.666 5.666 0 0 1-1.295 1.563zm-27.585-1.185zm-27.212-2.46c.048-.106.096-.21.15-.317-.054.107-.102.211-.15.317zm-.69 3.185c.073.734.342 1.278.81 1.629-.468-.351-.737-.895-.81-1.63zm-.36-1.73zm-7.077 4.889c-.055 0-.108-.004-.161-.007.056.003.112.007.17.007h-.01zm-4.993-8.877c.22-.561.445-1.13.673-1.701a70.716 70.716 0 0 1 1.584-3.65c.531-1.144 1.206-2.594 2.024-4.35.816-1.752 1.7-3.56 2.63-5.375a87.9 87.9 0 0 1 2.866-5.178c.96-1.597 1.845-2.824 2.632-3.649.587-.586.939-.83 1.133-.93a.814.814 0 0 1 .291-.072c.057 0 .077.008.113.064.152.244.23.587.23 1.018.038 1.178-.263 2.748-.896 4.684-.64 1.96-1.638 4.112-2.962 6.398-1.33 2.294-3.008 4.694-4.986 7.134a50.715 50.715 0 0 1-5.332 5.607zm2.315.105zM19.154.842c.05 0 .099.009.147.015-.054-.007-.108-.014-.165-.013l.018-.002zm6.441 25.111l-.014.002c-.013 0-.028-.003-.041-.004a.382.382 0 0 0 .055.002zm86.09 1.658c.609-.784.972-1.207 1.686-1.683.505-.337 1.348-.681 1.348-.673 0 .673-.815 1.564-1.44 2.153-.489.46-1.904 1.56-2.942 2.223.251-.465 1.045-1.629 1.348-2.02zm8.918 3.05c-.218-.277-.47-.418-.751-.418-.277 0-.526.137-.743.408a14.287 14.287 0 0 1-2.014 1.54c-.771.494-1.556.926-2.332 1.284-.769.354-1.526.633-2.25.828-.71.192-1.315.29-1.8.29-.393 0-.493-.083-.494-.084a1.878 1.878 0 0 1-.264-.456 1.894 1.894 0 0 1-.123-.998c.047-.324.134-.465.168-.731 2.023-1.347 3.297-2.107 4.338-2.926 1.158-.912 1.86-2.037 2.086-3.344.19-1.202-.29-1.887-.726-2.25a.499.499 0 0 0-.064-.045 2.254 2.254 0 0 0-1.175-.327c-.462 0-.955.136-1.467.404-.868.455-1.72 1.141-2.532 2.04a13.885 13.885 0 0 0-2.102 3.114c-.274.548-.869 1.788-1.054 2.324-1.632 1.508-1.676 1.345-2.844 2.215-1.186.882-2.179 1.55-2.953 1.987-.757.427-1.348.7-1.755.81-.364.1-.567.12-.673.12h-.006a.696.696 0 0 1-.02-.032c-.067-.16-.15-.556.01-1.44.138-.77.37-1.631.687-2.562.32-.938.696-1.892 1.118-2.837.425-.948.82-1.79 1.176-2.5.153-.254.165-.576.039-.958a.504.504 0 0 0-.124-.2c-.262-.26-.547-.391-.847-.391h-.552c-.383 0-.71.195-.925.55a.511.511 0 0 0-.022.043c-.676 1.412-.957 2.69-1.41 3.849-.336.673-.336.673-.811 1.09-.37.324-.812.589-1.274.838a5.703 5.703 0 0 1-1.38.536 1.63 1.63 0 0 1-.377.047c-.227 0-.486.005-.626-.173-.25-.319-.302-.576-.25-.992.06-.472.15-.6.337-1.346.674-2.694.254-3.86-.315-4.784-.524-.85-1.316-1.3-2.29-1.3-.12 0-.245.007-.371.02-1.066.114-2.222.659-3.536 1.664-.447.342-.882.73-1.303 1.162l.847-2.151c.153-.327.11-.688-.12-.996a.468.468 0 0 0-.049-.055c-.266-.264-.523-.392-.786-.392h-.429c-.466 0-.82.26-.97.714l-2.205 6.047c-1.675.44-3.146.665-4.378.665-.055 0-.106-.002-.16-.003.092-.201.159-.35.175-.395a6.699 6.699 0 0 0 .36-1.545 4.248 4.248 0 0 0-.088-1.47 2.397 2.397 0 0 0-.838-1.306c-.44-.377-.905-.56-1.384-.564a1.06 1.06 0 0 0 .104-.186c.177-.414.073-.86-.268-1.135a1.511 1.511 0 0 0-.628-.285c-.25-.054-.5-.054-.735.005a.669.669 0 0 0-.093.03c-.923.361-1.829.9-2.692 1.6a15.186 15.186 0 0 0-2.31 2.33 12.745 12.745 0 0 0-1.676 2.72l-.05.117c-.63.235-1.26.454-1.886.649-1.256.392-2.286.631-3.063.712a.923.923 0 0 1-.231-.025c-.052-.106-.066-.272-.04-.483.037-.325.095-.643.171-.947.17-.593.27-1.274.292-2.007.018-.616-.205-1.45-1.35-1.971a.5.5 0 0 0-.17-.109 2.586 2.586 0 0 0-.927-.179c-.34 0-.676.075-.998.222-.553.253-1.082.654-1.574 1.19a14.026 14.026 0 0 0-1.369 1.78c-.101.155-.202.309-.3.462.144-.671.216-1.32.216-1.931a5.37 5.37 0 0 0-.273-1.758c-.208-.596-.581-1.032-1.11-1.297l-.124-.062-.12-.06a.524.524 0 0 0-.105-.04 3.077 3.077 0 0 0-.741-.093c-.328 0-.653.057-.965.17-.945.36-1.923 1.141-2.914 2.326-.246.293-.491.596-.735.91l1.597-3.598c.138-.358.094-.704-.123-.962-.176-.29-.479-.454-.842-.454h-.491c-.264 0-.647.103-.973.594a.497.497 0 0 0-.058.116l-2.804 8.357c-.674 1.684-1.348 3.03-2.696 4.713-.688.86-1.348 1.683-2.36 2.357-.396.264-.759.164-.821.184a.59.59 0 0 1-.21-.218c-.013-.056-.044-.321.168-1.168.484-1.812.954-3.343 1.395-4.544a87.12 87.12 0 0 1 1.159-3.015c.335-.817.57-1.44.72-1.906.186-.587.186-1.051 0-1.422a.472.472 0 0 0-.018-.034c-.182-.302-.413-.507-.685-.61a16.235 16.235 0 0 0-.486-.171 1.293 1.293 0 0 0-.311-.038c-.401 0-.812.185-1.22.55a225.4 225.4 0 0 1-1.348 1.192c-.484.426-1.047.83-1.672 1.201-.34.202-.725.344-1.15.427.171-.4.258-.797.258-1.188 0-.727-.229-1.251-.679-1.56-.298-.282-.618-.424-.952-.424-.132 0-.265.023-.394.07a2.192 2.192 0 0 0-.955.672c-.32.367-.59.844-.793 1.408-.212.588-.29 1.053-.241 1.424.05.535.204.923.406 1.207-1.288 1.565-2.39 2.613-3.277 3.103-.884.488-1.405.59-1.686.59a.799.799 0 0 1-.289-.047l-.121-.122a.475.475 0 0 0-.034-.03.541.541 0 0 0-.058-.059c-.043-.059-.129-.233-.129-.687 0-.44.05-.946.146-1.507.098-.565.237-1.154.416-1.748.18-.6.37-1.14.565-1.605a.52.52 0 0 0 .024-.072c.141-.568-.082-1.039-.598-1.26l-.547-.243a.3.3 0 0 0-.026-.01.686.686 0 0 0-.363-.095h-.184a.507.507 0 0 0-.326.119.733.733 0 0 0-.215.152l-.123.122a.501.501 0 0 0-.064.08c-1.396 2.11-2.631 3.608-3.67 4.45-1.065.863-1.721 1.187-2.112 1.293a1.17 1.17 0 0 1-.148-.191c-.002-.005-.09-.204.096-.993l.007-.033c.113-.678.364-1.39.746-2.114.393-.747.833-1.445 1.306-2.077.476-.633.935-1.171 1.364-1.6.451-.45.672-.56.743-.586.283.008.489.08.628.218a.535.535 0 0 0 .053.047c.24.18.482.271.718.271.218 0 .533-.077.795-.442.348-.486.305-1.027-.114-1.447a.566.566 0 0 0-.043-.038 3.51 3.51 0 0 0-1.716-.718.47.47 0 0 0-.072-.005h-.49c-.202 0-.389.026-.557.077-.695.146-1.49.59-2.43 1.354-.948.77-1.886 2.139-2.867 4.186-.2.4-.364.788-.5 1.167-.52.404-1.048.802-1.578 1.184a29.32 29.32 0 0 1-2.503 1.626c-.8.46-1.513.82-2.12 1.075-.422.176-.767.265-1.028.265a.806.806 0 0 1-.171-.016.714.714 0 0 1-.017-.059 3.219 3.219 0 0 1-.078-.766c0-.319.03-.663.086-1.024.06-.379.112-.756.153-1.123.083-.34.136-.666.16-.971.018-.274.048-.55.087-.823.144-1.05.03-1.795-.346-2.28a2.094 2.094 0 0 0-1.405-.732 56.442 56.442 0 0 0 5.031-5.89c1.723-2.334 3.18-4.611 4.333-6.77 1.157-2.166 2.026-4.207 2.584-6.066.564-1.875.829-3.452.788-4.687a4.451 4.451 0 0 0-.171-1.168 3 3 0 0 0-.592-1.14 2.854 2.854 0 0 0-.969-.745 1.592 1.592 0 0 0-.677-.147c-.25 0-.515.055-.789.162-.783.28-1.682 1.007-2.748 2.224-1.014 1.157-2.133 2.681-3.326 4.531-1.19 1.841-2.436 4.03-3.706 6.507a145.1 145.1 0 0 0-3.817 8.085 177.295 177.295 0 0 0-3.722 9.247C-.16 34.342.023 33.882.023 33.882a.507.507 0 0 0-.023.152v.246c0 .097.029.192.081.274a.557.557 0 0 0 .139.245.476.476 0 0 0 .036.046c.02.035.046.068.076.098l.061.06c.073.074.166.122.265.14.082.045.176.07.277.07h.736c.44 0 .811-.196 1.095-.904.531-1.323 1.632-2.61 2.652-3.708.967-1.04 1.985-1.549 3.11-1.553a4.147 4.147 0 0 1-.053.577l-.242 1.45c-.207.828-.364 1.688-.467 2.554-.12 1.007.14 1.864.776 2.548l.013.014c.322.32.704.512 1.137.57.183.033.376.05.574.05.613 0 1.316-.162 2.09-.48a19.431 19.431 0 0 0 2.899-1.51 39.7 39.7 0 0 0 1.985-1.335c.149.858.561 1.487 1.238 1.868.361.205.817.31 1.353.31h.245a.497.497 0 0 0 .063-.004c.744-.094 1.578-.461 2.553-1.125.62-.423 1.282-1.006 1.974-1.741-.001.377.032.738.097 1.08.157.835.45 1.52.872 2.034.01.013.022.025.033.036l.123.123.123.123c.03.03.063.055.098.077.015.012.03.025.047.036.038.036.08.067.127.092a.838.838 0 0 0 .24.148c.365.23.849.346 1.44.346 1.05 0 2.236-.498 3.527-1.481 1.107-.844 2.28-2.04 3.494-3.555a6.405 6.405 0 0 0 1.838-.418c.949-.358 1.892-.85 2.803-1.463.101-.068.2-.136.294-.202a85.223 85.223 0 0 0-1.394 3.882 43.283 43.283 0 0 0-.804 2.657 19.77 19.77 0 0 0-.344 1.312c-.11.483-.166.964-.166 1.429 0 .491.084.955.25 1.378.18.463.502.852.956 1.155a1.939 1.939 0 0 0 .962.259c.541 0 1.72-.314 2.298-.766.592-.463 3.114-2.658 6.404-7.405.762-1.1 1.275-1.96 1.957-2.98a23.89 23.89 0 0 1 2.041-2.67c.635-.708 1.206-1.156 1.696-1.331a.741.741 0 0 0 .029-.012.523.523 0 0 1 .198-.05.17.17 0 0 1 .042.004c.014.051.036.164.036.379 0 .42-.04.901-.117 1.427-.08.535-.172 1.087-.273 1.637-.1.538-.19.968-.267 1.277-.09.316-.148.636-.17.954-.018.243-.06.47-.128.672a.453.453 0 0 0-.016.06c-.149.74.12 1.165.371 1.393.266.243.534.42.796.523.025.01.05.018.077.024.093.02.186.032.28.032.474 0 .906-.263 1.282-.779.333-.457.771-1.104 1.303-1.921l.01-.015c.244-.407.54-.876.879-1.393.337-.515.68-.999 1.02-1.438.317-.411.637-.74.95-.98.173-.133.332-.2.472-.2.032 0 .064.003.096.01.009.051.014.134.001.26-.04.392-.119.868-.236 1.414-.125.583-.22 1.156-.284 1.702-.08.688.133 1.28.615 1.713.389.38 1.004.566 1.88.566h.246l.033-.001a12.08 12.08 0 0 0 2.114-.352 24.409 24.409 0 0 0 2.077-.619c-.003.056-.013.118-.016.172-.036 1.005.28 1.934.942 2.76.697.87 1.618 1.31 2.739 1.31.596 0 1.211-.147 1.83-.437a8.224 8.224 0 0 0 1.664-1.056 10.037 10.037 0 0 0 1.484-1.506c.405-.505.778-1.029 1.11-1.557l.04-.073c.395.04.818.063 1.275.063.276 0 .569-.008.87-.022.731-.035 1.568-.157 2.496-.356l-1.187 3.172a.523.523 0 0 0-.016.05c-.135.545.064 1 .534 1.231a.889.889 0 0 0 .509.132h.245c.466 0 .82-.26.97-.713l.425-1.15c.477-1.31.753-1.545 1.485-2.69.74-1.159 1.51-2.2 2.287-3.097.768-.885 1.535-1.612 2.28-2.16.71-.524 1.311-.833 1.786-.921.07-.013.136-.02.196-.02.208 0 .328.076.425.27.095.19.213.704-.07 1.981-.129.475-.24 1.256-.34 1.694-.11.482-.165.974-.165 1.46 0 .523.11 1.018.325 1.472.23.487.645.884 1.231 1.18.508.282 1.05.426 1.614.426.28 0 .57-.036.86-.106a8.406 8.406 0 0 0 2-.766c-.56 2.412-.307 3.608.744 4.361l.014.01c.451.3.958.453 1.507.453 1.867 0 3.835-1.17 7.88-4.2.337 1.346.788 1.579 1.685 2.02.41.247.878.341 1.6.341.668 0 1.255-.066 1.745-.198a18.119 18.119 0 0 0 4.972-1.856c1.542-.853 2.753-1.693 3.6-2.496a.523.523 0 0 0 .035-.037c.407-.474.406-1.028 0-1.456z" fill="#373737"/>
  </g>
</svg>
