<svg width="31" height="70" xmlns="http://www.w3.org/2000/svg" xmlns:xlink="http://www.w3.org/1999/xlink">
  <defs>
    <path id="a" d="M.493 14.848H26.21V.565H.493v14.283z"/>
  </defs>
  <g fill="none" fill-rule="evenodd">
    <path d="M0 15.556C0 6.929 6.905 0 15.5 0 24.095 0 31 6.93 31 15.556v18.383c0 8.627-6.905 15.556-15.5 15.556-8.595 0-15.5-6.93-15.5-15.556V15.556zm2.818 0v18.383c0 7 5.707 12.728 12.682 12.728 6.975 0 12.682-5.728 12.682-12.728V15.556c0-7-5.707-12.728-12.682-12.728-6.975 0-12.682 5.728-12.682 12.728z" fill="#000"/>
    <path d="M14.09 11.313c0-.778.635-1.414 1.41-1.414.775 0 1.41.636 1.41 1.414v5.657c0 .777-.635 1.414-1.41 1.414-.775 0-1.41-.637-1.41-1.414v-5.657z" fill="#000"/>
    <g transform="translate(2.114 54.727)">
      <mask id="b" fill="#fff">
        <use xlink:href="#a"/>
      </mask>
      <path d="M13.386 11.454L23.814.99c.563-.566 1.409-.566 1.972 0a1.37 1.37 0 0 1 0 1.98L14.373 14.423a1.386 1.386 0 0 1-.987.425c-.352 0-.704-.142-.986-.425L.916 2.969a1.37 1.37 0 0 1 0-1.98C1.48.425 2.325.425 2.889.99l10.497 10.465z" fill="#000" mask="url(#b)"/>
    </g>
  </g>
</svg>
