<svg width="34" height="34" xmlns="http://www.w3.org/2000/svg">
  <g transform="translate(1 1)" fill="none" fill-rule="evenodd">
    <circle stroke="#000" cx="16" cy="16" r="16"/>
    <path d="M14.514 18.66v-5.062l4.396 2.53-4.396 2.532zm7.38-7.44C19.926 11 17.932 11 15.947 11c-1.985 0-3.98 0-5.95.22a2.005 2.005 0 0 0-1.716 1.556c-.277 1.2-.28 2.51-.28 3.745 0 1.235 0 2.544.277 3.744a2.003 2.003 0 0 0 1.717 1.556c1.97.22 3.963.22 5.949.22 1.985 0 3.979 0 5.948-.22a2.005 2.005 0 0 0 1.718-1.556c.276-1.2.278-2.51.278-3.744 0-1.236.002-2.545-.275-3.745a2.006 2.006 0 0 0-1.717-1.556z" fill="#000"/>
  </g>
</svg>
