<svg width="94" height="68" xmlns="http://www.w3.org/2000/svg">
  <g fill="none" fill-rule="evenodd">
    <path d="M88.501 5.37a12.32 12.32 0 0 0-6.932-3.145c-5.716-.64-11.483-.961-17.27-1.123-5.748-.16-11.522-.16-17.283-.157-5.76-.003-11.534-.003-17.284.157-5.787.162-11.556.484-17.275 1.123A12.306 12.306 0 0 0 5.53 5.371a12.861 12.861 0 0 0-3.875 6.658C.837 15.574.423 19.273.215 22.995c-.21 3.737-.216 7.427-.216 11.01 0 3.577 0 7.262.205 11.002.204 3.72.613 7.418 1.431 10.964a12.893 12.893 0 0 0 3.88 6.66 12.296 12.296 0 0 0 6.922 3.144c5.72.64 11.489.961 17.276 1.123 5.75.16 11.523.16 17.284.157 5.764.003 11.537.003 17.286-.157 5.787-.162 11.554-.484 17.273-1.123a12.302 12.302 0 0 0 6.922-3.143 12.923 12.923 0 0 0 3.886-6.661c.815-3.546 1.224-7.244 1.428-10.964.202-3.668.204-7.39.204-11.003H94v-.181h-.004c0-7.178 0-14.78-1.612-21.794a12.882 12.882 0 0 0-3.883-6.66z" fill="#E42B26"/>
    <path d="M64.835 32.235c-5.355-2.797-10.675-5.573-15.988-8.345a64613.26 64613.26 0 0 1-13.254-6.917l-1.46-.763v33.709l1.456-.755c4.888-2.532 9.755-5.054 14.621-7.577l14.621-7.582 1.702-.883-1.698-.887z" fill="#FFFFFE"/>
    <path d="M-17-30h128V98H-17z"/>
  </g>
</svg>
